# xmcd
# 
# Track frame offsets:
#     150
#     18227
#     33888
#     51736
#     65991
#     88942
#     111088
#     129237
#     147334
#     167645
#     187290
#     207683
#     236025
# 
# Disc length: 3661
# 
# Revision: 3
# Processed by: cddbd v1.5.2PL0 Copyright (c) Steve Scherf et al.
# Submitted via: BonkEnc v1.0
# 
DISCID=cb0e4b0d
DTITLE=Tommy Castro - Essential Tommy Castro, The
DYEAR=2001
DGENRE=Blues
TTITLE0=Can't Keep a Good Man Down
TTITLE1=Exception to the Rule
TTITLE2=Lucky in Love
TTITLE3=Girl Can't Help It, The
TTITLE4=Just a Man
TTITLE5=Had Enough
TTITLE6=Nasty Habits
TTITLE7=Sho' Enough
TTITLE8=Take the Highway Down
TTITLE9=Right as Rain
TTITLE10=Hycodan
TTITLE11=Nobody Loves Me Like My Baby
TTITLE12=Video Track Nobody Loves Me Like My Baby
EXTD=
EXTT0=
EXTT1=
EXTT2=
EXTT3=
EXTT4=
EXTT5=
EXTT6=
EXTT7=
EXTT8=
EXTT9=
EXTT10=
EXTT11=
EXTT12=
PLAYORDER=
